<svg width="0" height="0" class="hidden">

    <symbol xmlns="http://www.w3.org/2000/svg" viewBox="0 0 24 24" id="edit">
        <path
            d="M18.3785 8.44975L11.4637 15.3647C11.1845 15.6439 10.8289 15.8342 10.4417 15.9117L7.49994 16.5L8.08829 13.5582C8.16572 13.1711 8.35603 12.8155 8.63522 12.5363L15.5501 5.62132M18.3785 8.44975L19.7927 7.03553C20.1832 6.64501 20.1832 6.01184 19.7927 5.62132L18.3785 4.20711C17.988 3.81658 17.3548 3.81658 16.9643 4.20711L15.5501 5.62132M18.3785 8.44975L15.5501 5.62132"
            stroke="#000000" stroke-width="2" stroke-linecap="round" stroke-linejoin="round" />
        <path d="M5 20H19" stroke="#000000" stroke-width="2" stroke-linecap="round"
            stroke-linejoin="round" />
    </symbol>
    <symbol xmlns="http://www.w3.org/2000/svg" viewBox="0 0 24 24" id="delete">
        <path
            d="M6 7V18C6 19.1046 6.89543 20 8 20H16C17.1046 20 18 19.1046 18 18V7M6 7H5M6 7H8M18 7H19M18 7H16M10 11V16M14 11V16M8 7V5C8 3.89543 8.89543 3 10 3H14C15.1046 3 16 3.89543 16 5V7M8 7H16"
            stroke="#000000" stroke-width="2" stroke-linecap="round" stroke-linejoin="round" />
    </symbol>

    <symbol xmlns="http://www.w3.org/2000/svg" viewBox="0 0 24 24" id="cross">
        <path
            d="M20.7457 3.32851C20.3552 2.93798 19.722 2.93798 19.3315 3.32851L12.0371 10.6229L4.74275 3.32851C4.35223 2.93798 3.71906 2.93798 3.32854 3.32851C2.93801 3.71903 2.93801 4.3522 3.32854 4.74272L10.6229 12.0371L3.32856 19.3314C2.93803 19.722 2.93803 20.3551 3.32856 20.7457C3.71908 21.1362 4.35225 21.1362 4.74277 20.7457L12.0371 13.4513L19.3315 20.7457C19.722 21.1362 20.3552 21.1362 20.7457 20.7457C21.1362 20.3551 21.1362 19.722 20.7457 19.3315L13.4513 12.0371L20.7457 4.74272C21.1362 4.3522 21.1362 3.71903 20.7457 3.32851Z"
            fill="#0F0F0F" />
    </symbol>
    <symbol xmlns="http://www.w3.org/2000/svg" viewBox="0 0 24 24" id="arrow">
    <path
        d="M5.70711 9.71069C5.31658 10.1012 5.31658 10.7344 5.70711 11.1249L10.5993 16.0123C11.3805 16.7927 12.6463 16.7924 13.4271 16.0117L18.3174 11.1213C18.708 10.7308 18.708 10.0976 18.3174 9.70708C17.9269 9.31655 17.2937 9.31655 16.9032 9.70708L12.7176 13.8927C12.3271 14.2833 11.6939 14.2832 11.3034 13.8927L7.12132 9.71069C6.7308 9.32016 6.09763 9.32016 5.70711 9.71069Z"
        fill="#0F0F0F" />
    </symbol>
</svg>